<?xml version="1.0" standalone="no"?><!DOCTYPE svg PUBLIC "-//W3C//DTD SVG 1.1//EN" "http://www.w3.org/Graphics/SVG/1.1/DTD/svg11.dtd"><svg t="1629477330963" class="icon" viewBox="0 0 1171 1024" version="1.1" xmlns="http://www.w3.org/2000/svg" p-id="3208" xmlns:xlink="http://www.w3.org/1999/xlink" width="228.7109375" height="200"><defs><style type="text/css"></style></defs><path d="M1170.093202 780.429946C1170.093202 834.158592 1126.272683 877.714286 1072.971191 877.714286L763.496643 877.714286C709.85767 877.714286 626.550638 895.060748 576.691736 916.778179L414.718147 987.330267C365.187657 1008.90468 325.035252 982.589489 325.035252 928.881469L325.035252 926.397635C325.035252 899.510565 303.204059 877.714286 276.374187 877.714286L97.521274 877.714286C43.661751 877.714286 0 834.188288 0 780.429946L0 97.28434C0 43.555694 43.733528 0 97.748943 0L1072.344259 0C1126.329539 0 1170.093202 43.525998 1170.093202 97.28434L1170.093202 780.429946ZM368.391314 780.190476C395.180422 780.190476 416.897268 801.834179 416.897268 828.952381 416.897268 855.88285 436.699575 869.059682 461.516995 858.213278L550.564376 819.295232C599.979739 797.698243 683.911997 780.190476 737.150342 780.190476L1023.964209 780.190476C1050.914426 780.190476 1072.761905 758.250106 1072.761905 731.094796L1072.761905 146.61949C1072.761905 119.504701 1050.560317 97.52381 1024.399701 97.52381L145.886013 97.52381C119.17629 97.52381 97.52381 119.46418 97.52381 146.61949L97.52381 731.094796C97.52381 758.209585 119.475639 780.190476 146.029763 780.190476L368.391314 780.190476ZM292.571429 536.380952C292.571429 509.450484 314.795203 487.619048 341.453922 487.619048L828.831793 487.619048C855.828821 487.619048 877.714286 509.26275 877.714286 536.380952 877.714286 563.311421 855.490511 585.142857 828.831793 585.142857L341.453922 585.142857C314.456893 585.142857 292.571429 563.499154 292.571429 536.380952ZM292.571429 341.333333C292.571429 314.402865 314.795203 292.571429 341.453922 292.571429L828.831793 292.571429C855.828821 292.571429 877.714286 314.215131 877.714286 341.333333 877.714286 368.263802 855.490511 390.095238 828.831793 390.095238L341.453922 390.095238C314.456893 390.095238 292.571429 368.451535 292.571429 341.333333Z" p-id="3209"></path></svg>