<?xml version="1.0" standalone="no"?><!DOCTYPE svg PUBLIC "-//W3C//DTD SVG 1.1//EN" "http://www.w3.org/Graphics/SVG/1.1/DTD/svg11.dtd"><svg t="1624680483662" class="icon" viewBox="0 0 1024 1024" version="1.1" xmlns="http://www.w3.org/2000/svg" p-id="4012" xmlns:xlink="http://www.w3.org/1999/xlink" width="200" height="200"><defs><style type="text/css"></style></defs><path d="M41.984 509.952h51.2v208.896h-51.2zM928.768 509.952h51.2v208.896h-51.2z" fill="" p-id="4013"></path><path d="M366.592 599.04m-48.128 0a48.128 48.128 0 1 0 96.256 0 48.128 48.128 0 1 0-96.256 0Z" fill="" p-id="4014"></path><path d="M649.216 599.04m-48.128 0a48.128 48.128 0 1 0 96.256 0 48.128 48.128 0 1 0-96.256 0Z" fill="" p-id="4015"></path><path d="M841.5232 320.512H533.504V160.5632c13.5168-8.6016 22.528-23.552 22.528-40.7552 0-26.624-21.504-48.128-48.128-48.128s-48.128 21.504-48.128 48.128c0 17.2032 9.0112 32.1536 22.528 40.7552v159.9488H180.4288c-23.7568 0-43.008 19.2512-43.008 43.008v546.816c0 23.7568 19.2512 43.008 43.008 43.008h660.8896c23.7568 0 43.008-19.2512 43.008-43.008v-546.816c0.2048-23.7568-19.2512-43.008-42.8032-43.008z m-8.192 581.632H188.6208v-530.432h644.5056v530.432z" fill="" p-id="4016"></path></svg>